<svg version="1.2" xmlns="http://www.w3.org/2000/svg" viewBox="0 0 300 300" width="300" height="300"><style>.a{fill:#fff}</style><path fill-rule="evenodd" class="a" d="m150 300c-83 0-150-67.1-150-150 0-83 67-150 150-150 82.9 0 150 67 150 150 0 82.9-67.1 150-150 150z"/><path  d="m128.5 4.5c-9.4 1.6-23.9 5.4-30.1 8l-3.6 1.5 5 5.7c6.8 7.8 28.1 28.7 36.8 36.1 40.8 34.6 88.7 59.2 140.2 72.1 17.8 4.5 19.2 4.7 19.2 2.5-0.1-3.1-3.8-19.4-6.1-26.4-3.1-9.3-10.9-25.5-16.4-34.1-21.2-32.9-54.4-55.4-94.4-64-12.8-2.7-38-3.4-50.6-1.4z"/><path  d="m64.9 30.3c-9.7 6.9-15.9 12.2-15.9 13.4 0 1.2 13.8 12.8 23.4 19.6 25.5 18.4 63.5 36.5 100 47.8 7.2 2.2 7.1 2.1-7.9-7.2-29.3-18.1-62-46.3-86-74.1l-5-5.8z"/><path  d="m30.6 64.2c-13.4 17.7-23.1 43.2-27 71l-0.5 3.8 91.2-0.1c77 0 90.6-0.3 87.2-1.4-2.2-0.7-10.7-3.4-18.9-6-48-15-97.3-41.5-124.3-66.6-2.3-2.1-4.4-3.9-4.7-3.9-0.3 0-1.6 1.5-3 3.2z"/><path  d="m4.2 168.7c2.8 22.2 12.1 46.6 25 65.6l4 5.8 4.1-3.8c29.3-26.7 72.8-50.2 123.7-66.8 9.6-3.1 18.6-6.1 20-6.5 1.4-0.5-38-0.9-87.6-0.9l-90.1-0.1z"/><path  d="m292.5 168.7c-61.5 14-105.8 35.3-152.5 73.1-10.6 8.6-41.9 39.2-43.9 43-1 1.9-0.5 2.2 6.7 4.6 14.9 5 24.9 6.7 41.9 7.3 17.9 0.6 27.1-0.3 42.8-4.4 51.7-13.5 91.6-53.5 104.9-105.3 3-11.3 4.2-19 3-18.9-0.5 0.1-1.8 0.3-2.9 0.6z"/><path  d="m163 192.6c-8.5 3-16.6 5.9-18 6.3-13.1 4.5-41.8 18.6-57.5 28.4-16.4 10.1-38.5 27.1-38.5 29.6 0 1 11.8 10.6 18.9 15.4l5.6 3.7 7.4-8.2c28-31.2 58.7-56.8 90.9-75.7 3.9-2.4 7.2-4.5 7.2-4.7 0-0.5 1.7-1.1-16 5.2z"/></svg>